<svg width="100" height="100" viewBox="0 0 100 100" fill="none" xmlns="http://www.w3.org/2000/svg">
<path d="M49.9879 35.7173C41.725 35.7173 34.9818 42.1736 34.9818 50.0851C34.9818 57.9966 41.725 64.4529 49.9879 64.4529C58.2508 64.4529 64.994 57.9966 64.994 50.0851C64.994 42.1736 58.2508 35.7173 49.9879 35.7173ZM94.995 50.0851C94.995 44.1353 95.0513 38.2395 94.7023 32.3005C94.3533 25.4022 92.7097 19.28 87.4413 14.2356C82.1615 9.18047 75.7786 7.61758 68.5739 7.28345C62.3598 6.94931 56.202 7.00321 49.9992 7.00321C43.7851 7.00321 37.6273 6.94931 31.4245 7.28345C24.2197 7.61758 17.8255 9.19125 12.5571 14.2356C7.27734 19.2908 5.64502 25.4022 5.29604 32.3005C4.94706 38.2502 5.00335 44.1461 5.00335 50.0851C5.00335 56.0241 4.94706 61.9307 5.29604 67.8697C5.64502 74.768 7.2886 80.8902 12.5571 85.9346C17.8368 90.9897 24.2197 92.5526 31.4245 92.8868C37.6385 93.2209 43.7963 93.167 49.9992 93.167C56.2132 93.167 62.371 93.2209 68.5739 92.8868C75.7786 92.5526 82.1728 90.979 87.4413 85.9346C92.721 80.8794 94.3533 74.768 94.7023 67.8697C95.0625 61.9307 94.995 56.0349 94.995 50.0851V50.0851ZM49.9879 72.1919C37.2108 72.1919 26.899 62.3188 26.899 50.0851C26.899 37.8514 37.2108 27.9783 49.9879 27.9783C62.765 27.9783 73.0768 37.8514 73.0768 50.0851C73.0768 62.3188 62.765 72.1919 49.9879 72.1919ZM74.0224 32.2358C71.0392 32.2358 68.6302 29.9292 68.6302 27.0729C68.6302 24.2166 71.0392 21.91 74.0224 21.91C77.0057 21.91 79.4147 24.2166 79.4147 27.0729C79.4156 27.7511 79.2768 28.4229 79.0061 29.0497C78.7354 29.6764 78.3383 30.2459 77.8374 30.7255C77.3365 31.2051 76.7417 31.5854 76.087 31.8445C75.4324 32.1037 74.7308 32.2367 74.0224 32.2358V32.2358Z" fill="#3E2443"/>
</svg>
