<svg width="100" height="100" viewBox="0 0 100 100" fill="none" xmlns="http://www.w3.org/2000/svg">
<path d="M50.0821 5.00011C74.8232 5.0545 95.0894 25.4199 94.9997 50.1351C94.91 74.8814 74.5159 95.1259 49.8061 94.9994C25.1466 94.8716 4.98369 74.6122 5.00001 49.976C5.01633 25.2432 25.3615 4.94572 50.0821 5.00011ZM68.4883 63.4505C71.8386 62.6551 75.0611 62.2866 77.9654 61.1214C85.3091 58.1749 88.8144 50.9318 87.2141 42.8213C85.8204 35.7604 79.5264 30.202 72.4342 30.1598C55.6881 30.0579 38.9421 30.1286 22.1961 30.0891C20.1239 30.0851 19.2401 31.1646 19.2401 33.0193C19.2374 44.2082 19.1993 55.3984 19.3666 66.586C19.4278 70.6433 22.4313 73.4755 26.4207 73.4959C37.6096 73.5557 48.7999 73.5353 59.9889 73.4483C64.0244 73.417 67.1789 70.597 67.9948 66.6009C68.2218 65.4873 68.3496 64.3533 68.4883 63.4478V63.4505Z" fill="#3E2443"/>
<path d="M43.9349 43.459C46.2328 41.4561 48.6232 39.9034 51.6362 40.3249C57.5536 41.1529 59.9889 47.2212 56.2579 52.267C54.1979 55.0531 51.5819 57.4461 49.095 59.8922C47.4429 61.5184 45.6223 64.027 43.7908 64.1032C42.1442 64.1725 40.3358 61.5143 38.6811 59.9711C36.6823 58.1056 34.7148 56.1993 32.8452 54.206C31.9777 53.2814 31.2027 52.1868 30.6792 51.0365C29.0897 47.5476 29.669 43.9933 31.9886 42.0095C34.3028 40.0298 38.401 39.849 41.4181 41.6451C42.2557 42.1442 43.009 42.7846 43.9349 43.459V43.459Z" fill="#3E2443"/>
<path d="M68.6474 54.2141V38.4907C72.3485 38.0474 75.6893 38.4091 77.9804 41.7104C79.6882 44.1714 79.4693 48.9086 77.6568 51.4336C75.7192 54.1339 72.6545 55.0993 68.6474 54.2141Z" fill="#3E2443"/>
</svg>
