<svg width="95" height="95" viewBox="0 0 95 95" fill="none" xmlns="http://www.w3.org/2000/svg">
<path fill-rule="evenodd" clip-rule="evenodd" d="M28 5C14.1929 5 3 16.1929 3 30V66C3 79.8071 14.1929 91 28 91H68C81.8071 91 93 79.8071 93 66V30C93 16.1929 81.8071 5 68 5H28ZM16 31.4746V65.7521C16.8089 69.4405 18.8965 71.9152 22.6111 72.8019C23.2582 72.956 23.9427 73 24.6085 73C35.3853 72.9748 46.1622 72.9403 56.9391 72.8899C62.2498 72.8648 65.7 69.6072 66.1169 64.2679C66.1529 63.8025 66.1838 63.3372 66.2137 62.8869C66.2302 62.6374 66.2465 62.3925 66.2631 62.1548C66.9431 62.0698 67.6132 61.9988 68.2749 61.9286C69.7174 61.7757 71.12 61.627 72.4978 61.3467C79.868 59.8437 85.0169 54.2435 85.7822 47.593C85.7928 47.4991 85.8549 47.411 85.917 47.3229C85.9465 47.2811 85.976 47.2392 86 47.1968V43.109C85.8258 42.3575 85.6516 41.606 85.4742 40.8544C83.676 33.1632 77.2267 28 69.4178 28H20.3089C17.932 28 16.4957 29.1582 16 31.4746ZM39.736 40.6669C40.2415 40.9577 40.7504 41.2506 41.2715 41.5242L41.2747 41.5211C41.6739 41.2845 42.0797 41.0239 42.4947 40.7574C43.4475 40.1456 44.4482 39.503 45.5276 39.0495C48.4924 37.8043 51.2582 38.4804 53.5667 40.6595C55.8036 42.7726 56.2142 45.4799 55.2467 48.3036C54.7675 49.6997 54.0427 51.1462 53.0471 52.1996C50.7328 54.6488 48.3425 57.0225 45.9514 59.3969C44.7232 60.6165 43.4948 61.8364 42.2765 63.0667C41.5671 63.7837 40.9978 63.9566 40.1982 63.1705C39.0308 62.0215 37.8471 60.8886 36.6635 59.7559C34.3488 57.5409 32.0347 55.3263 29.8445 52.992C28.5813 51.6493 27.6511 49.8035 27.0849 48.0175C26.2449 45.3699 26.5062 42.6625 28.6498 40.5935C30.8307 38.4867 33.5435 38.0748 36.3093 38.9867C37.4992 39.3796 38.609 40.0183 39.736 40.6669ZM76.1782 49.6494C73.9631 53.3127 70.5067 53.8064 66.5151 53.3441V36.8107C70.3169 35.773 73.7951 36.8013 75.864 39.5558C77.824 42.1657 77.9951 46.6434 76.1782 49.6494Z" fill="#3E2443"/>
</svg>
