<svg id="Layer_1" data-name="Layer 1" xmlns="http://www.w3.org/2000/svg" viewBox="0 0 95 95"><defs><style>.cls-1{fill:#3e2443;}</style></defs><path class="cls-1" d="M93,48.09c0-6,.06-11.85-.29-17.79-.35-6.9-2-13-7.26-18.06s-11.66-6.62-18.87-7C60.36,5,54.2,5,48,5s-12.37,0-18.58.28c-7.2.34-13.6,1.91-18.86,7S3.64,23.4,3.3,30.3C3,36.25,3,42.15,3,48.09s0,11.84.3,17.78c.34,6.9,2,13,7.26,18.07s11.66,6.61,18.86,7c6.22.33,12.38.28,18.58.28s12.37,0,18.57-.28c7.21-.34,13.6-1.91,18.87-7s6.91-11.17,7.26-18.07C93.06,59.93,93,54,93,48.09ZM32,74a7.83,7.83,0,1,1,7.81-7.83A7.83,7.83,0,0,1,32,74Zm17.53,0A25.38,25.38,0,0,0,24.13,48.6V38.44A35.5,35.5,0,0,1,59.62,74Zm20.29,0A45.68,45.68,0,0,0,24.13,28.27V18.11A55.84,55.84,0,0,1,79.91,74Z"/></svg>