<svg width="95" height="95" viewBox="0 0 95 95" fill="none" xmlns="http://www.w3.org/2000/svg">
<path fill-rule="evenodd" clip-rule="evenodd" d="M28 5C14.1929 5 3 16.1929 3 30V66C3 79.8071 14.1929 91 28 91H68C81.8071 91 93 79.8071 93 66V30C93 16.1929 81.8071 5 68 5H28ZM68.6272 32.945C70.8531 32.7042 73.0142 32.0858 75 31.2267C73.4944 33.4266 71.6059 35.3858 69.4514 36.9675C69.4838 37.4491 69.4838 37.9308 69.4838 38.4124C69.4838 53.0899 58.3477 70 37.9963 70C31.7273 70 25.9061 68.1775 21 65.0207C21.8891 65.1249 22.7457 65.1574 23.6737 65.1574C28.8459 65.1574 33.6093 63.4 37.4122 60.4124C32.5515 60.3083 28.4695 57.1124 27.0678 52.7124C27.7557 52.8101 28.4371 52.8817 29.1574 52.8817C30.1407 52.8789 31.1196 52.7521 32.0713 52.5042C27.0029 51.4758 23.2 47.0042 23.2 41.6083V41.4716C24.7337 42.3308 26.4481 42.8147 28.2035 42.884C25.2247 40.8858 23.2714 37.4882 23.2714 33.6349C23.265 31.6655 23.7849 29.7304 24.7769 28.0308C30.2217 34.7675 38.4116 39.1675 47.5944 39.6491C47.4257 38.8225 47.3218 37.9633 47.3218 37.1042C47.3218 30.9858 52.2539 26 58.3866 26C59.9024 25.9967 61.4026 26.3064 62.7937 26.91C64.1849 27.5136 65.4372 28.3981 66.4727 29.5083C68.9501 29.0278 71.3258 28.1205 73.4944 26.8267C72.6689 29.3924 70.9382 31.5679 68.6272 32.945Z" fill="#3E2443"/>
</svg>
