<svg width="100" height="100" viewBox="0 0 100 100" fill="none" xmlns="http://www.w3.org/2000/svg">
<path d="M50 5C25.1496 5 5 25.1496 5 50C5 74.8504 25.1496 95 50 95C74.8504 95 95 74.8504 95 50C95 25.1496 74.8504 5 50 5ZM71.6261 38.9208C71.6562 39.3929 71.6562 39.885 71.6562 40.3672C71.6562 55.1127 60.4263 72.0982 39.9051 72.0982C33.577 72.0982 27.7109 70.26 22.769 67.096C23.673 67.1964 24.5368 67.2366 25.4609 67.2366C30.6842 67.2366 35.4855 65.4687 39.3125 62.4754C34.4107 62.375 30.2924 59.1607 28.8862 54.7411C30.6038 54.9922 32.1507 54.9922 33.9185 54.5402C31.3946 54.0274 29.126 52.6566 27.4982 50.6608C25.8703 48.6649 24.9837 46.167 24.9888 43.5915V43.4509C26.4654 44.2846 28.2031 44.7969 30.0212 44.8672C28.4928 43.8486 27.2394 42.4686 26.3721 40.8496C25.5048 39.2306 25.0503 37.4226 25.0491 35.5859C25.0491 33.5067 25.5915 31.6083 26.5658 29.9609C29.3673 33.4096 32.8631 36.2302 36.8261 38.2394C40.789 40.2486 45.1304 41.4013 49.5681 41.6228C47.9911 34.0391 53.6562 27.9018 60.4665 27.9018C63.6808 27.9018 66.5737 29.2478 68.6127 31.4174C71.1339 30.9453 73.5446 30.0011 75.6942 28.7355C74.8605 31.317 73.1127 33.4967 70.7924 34.8728C73.0424 34.6317 75.2121 34.0089 77.221 33.135C75.7042 35.365 73.8058 37.3438 71.6261 38.9208V38.9208Z" fill="#3E2443"/>
</svg>
