<svg width="95" height="95" viewBox="0 0 95 95" fill="none" xmlns="http://www.w3.org/2000/svg">
<path d="M47.9879 33.7173C39.725 33.7173 32.9818 40.1736 32.9818 48.0851C32.9818 55.9966 39.725 62.4529 47.9879 62.4529C56.2508 62.4529 62.994 55.9966 62.994 48.0851C62.994 40.1736 56.2508 33.7173 47.9879 33.7173ZM92.995 48.0851C92.995 42.1353 93.0513 36.2395 92.7023 30.3005C92.3533 23.4022 90.7097 17.28 85.4413 12.2356C80.1615 7.18047 73.7786 5.61758 66.5739 5.28345C60.3598 4.94931 54.202 5.00321 47.9992 5.00321C41.7851 5.00321 35.6273 4.94931 29.4245 5.28345C22.2197 5.61758 15.8255 7.19125 10.5571 12.2356C5.27734 17.2908 3.64502 23.4022 3.29604 30.3005C2.94706 36.2502 3.00335 42.1461 3.00335 48.0851C3.00335 54.0241 2.94706 59.9307 3.29604 65.8697C3.64502 72.768 5.2886 78.8902 10.5571 83.9346C15.8368 88.9897 22.2197 90.5526 29.4245 90.8868C35.6385 91.2209 41.7963 91.167 47.9992 91.167C54.2132 91.167 60.371 91.2209 66.5739 90.8868C73.7786 90.5526 80.1728 88.979 85.4413 83.9346C90.721 78.8794 92.3533 72.768 92.7023 65.8697C93.0625 59.9307 92.995 54.0349 92.995 48.0851V48.0851ZM47.9879 70.1919C35.2108 70.1919 24.899 60.3188 24.899 48.0851C24.899 35.8514 35.2108 25.9783 47.9879 25.9783C60.765 25.9783 71.0768 35.8514 71.0768 48.0851C71.0768 60.3188 60.765 70.1919 47.9879 70.1919ZM72.0224 30.2358C69.0392 30.2358 66.6302 27.9292 66.6302 25.0729C66.6302 22.2166 69.0392 19.91 72.0224 19.91C75.0057 19.91 77.4147 22.2166 77.4147 25.0729C77.4156 25.7511 77.2768 26.4229 77.0061 27.0497C76.7354 27.6764 76.3383 28.2459 75.8374 28.7255C75.3365 29.2051 74.7417 29.5854 74.087 29.8445C73.4324 30.1037 72.7308 30.2367 72.0224 30.2358V30.2358Z" fill="white"/>
</svg>
