<svg width="95" height="95" viewBox="0 0 95 95" fill="none" xmlns="http://www.w3.org/2000/svg">
<path fill-rule="evenodd" clip-rule="evenodd" d="M28 5C14.1929 5 3 16.1929 3 30V66C3 79.8071 14.1929 91 28 91H68C81.8071 91 93 79.8071 93 66V30C93 16.1929 81.8071 5 68 5H28ZM16 31.4746V65.7521C16.8089 69.4405 18.8964 71.9152 22.6111 72.8019C23.2582 72.956 23.9427 73 24.6084 73C35.3853 72.9748 46.1622 72.9403 56.9391 72.8899C62.2498 72.8648 65.7 69.6072 66.1169 64.2679C66.153 63.8018 66.1839 63.3357 66.2138 62.8847C66.2303 62.636 66.2465 62.3918 66.2631 62.1548C66.9431 62.0698 67.6131 61.9988 68.2748 61.9286C69.7174 61.7757 71.12 61.627 72.4978 61.3467C79.868 59.8437 85.0169 54.2435 85.7822 47.593C85.7928 47.4991 85.8549 47.4111 85.917 47.3229C85.9465 47.2811 85.976 47.2393 86 47.1968V43.109C85.8258 42.3575 85.6516 41.606 85.4742 40.8544C83.676 33.1632 77.2267 28 69.4178 28H20.3089C17.932 28 16.4957 29.1582 16 31.4746ZM39.736 40.6669C40.2415 40.9577 40.7504 41.2506 41.2716 41.5242L41.2747 41.5211C41.6739 41.2845 42.0797 41.0239 42.4947 40.7575C43.4475 40.1456 44.4482 39.503 45.5276 39.0495C48.4924 37.8043 51.2582 38.4804 53.5667 40.6595C55.8036 42.7726 56.2142 45.4799 55.2467 48.3036C54.7676 49.6997 54.0427 51.1462 53.0471 52.1996C50.7327 54.6489 48.3423 57.0227 45.9511 59.3972C44.723 60.6167 43.4947 61.8365 42.2764 63.0667C41.5671 63.7837 40.9978 63.9566 40.1982 63.1705C39.0308 62.0214 37.847 60.8886 36.6633 59.7558C34.3487 57.5408 32.0346 55.3263 29.8444 52.992C28.5813 51.6493 27.6511 49.8035 27.0849 48.0175C26.2449 45.3699 26.5062 42.6625 28.6498 40.5935C30.8307 38.4867 33.5436 38.0748 36.3093 38.9867C37.4992 39.3796 38.609 40.0183 39.736 40.6669ZM76.1782 49.6494C73.9631 53.3127 70.5067 53.8064 66.5151 53.3441V36.8107C70.3169 35.773 73.7951 36.8013 75.864 39.5558C77.824 42.1657 77.9951 46.6434 76.1782 49.6494Z" fill="white"/>
</svg>
